<svg xmlns="http://www.w3.org/2000/svg" viewBox="0 0 1616.72 468.5"><defs><style>.cls-1,.cls-3{fill:none;}.cls-1{stroke:#1da2c1;stroke-miterlimit:10;stroke-width:20px;}.cls-2{fill:#9bd6df;}.cls-4{fill:#9cdae8;}.cls-5{fill:#18a8cb;}.cls-6{font-size:428.92px;fill:#219fbb;font-family:Landasans-Medium, Landasans;font-weight:500;}</style></defs><g id="Vrstva_1" data-name="Vrstva 1"><polygon class="cls-1" points="394.15 10 139.08 10 11.55 230.89 139.08 451.79 394.15 451.79 521.68 230.89 394.15 10"/><path class="cls-2" d="M582.75,89.87,356.32,89l-114,195.64L354.79,481.16l226.42.88,114-195.64Zm60.4,243.7a33.83,33.83,0,0,1-33.73,33.73H323.66a33.83,33.83,0,0,1-33.73-33.73h0A33.81,33.81,0,0,1,307.57,304a63.64,63.64,0,0,1,71.57-82.71A105.38,105.38,0,0,1,582.5,237.93a49.78,49.78,0,0,1,17.83-3.28,50.86,50.86,0,0,1,38.86,83.12,33.46,33.46,0,0,1,4,15.8Z" transform="translate(-202.15 -54.62)"/><path class="cls-3" d="M549.94,280.74a57.54,57.54,0,0,1-75.82,44.49,57.56,57.56,0,0,0,37.73-45.91l19.76,19.76Z" transform="translate(-202.15 -54.62)"/><path class="cls-3" d="M474.12,216.79a57.55,57.55,0,0,0-37.73,45.91l-19.76-19.76-18.35,18.34a57.53,57.53,0,0,1,75.84-44.49Z" transform="translate(-202.15 -54.62)"/><path class="cls-4" d="M474.12,216.79a57.55,57.55,0,0,0-37.73,45.91l-19.76-19.76-18.35,18.34a57.53,57.53,0,0,1,75.84-44.49Z" transform="translate(-202.15 -54.62)"/><path class="cls-4" d="M549.94,280.74a57.54,57.54,0,0,1-75.82,44.49,57.56,57.56,0,0,0,37.73-45.91l19.76,19.76Z" transform="translate(-202.15 -54.62)"/><path class="cls-5" d="M550.18,280.5a76.67,76.67,0,0,1-148.39,16c-.72-2.06-1.37-4.15-1.91-6.3H378.3l38.33-38.33L435.79,271,455,290.17H439.07a53.08,53.08,0,0,0,2.66,6.3,57.49,57.49,0,0,0,108.21-15.73Z" transform="translate(-202.15 -54.62)"/><path class="cls-5" d="M569.94,251.84l-38.33,38.33L512.45,271l-19.17-19.17h15.89a56.33,56.33,0,0,0-2.66-6.3,57.51,57.51,0,0,0-108.23,15.74l-.24.24a76.68,76.68,0,0,1,148.4-16c.73,2.06,1.36,4.16,1.92,6.3Z" transform="translate(-202.15 -54.62)"/></g><g id="Vrstva_2" data-name="Vrstva 2"><text class="cls-6" transform="translate(538.45 382.72)">BackupIT</text></g></svg>
