<svg xmlns="http://www.w3.org/2000/svg"  viewBox="0 0 100 100" width="100px" height="100px"><path fill="#c7ede6" d="M87.215,55.71C88.35,53.555,89,51.105,89,48.5c0-6.621-4.159-12.257-10.001-14.478 C78.999,34.015,79,34.008,79,34c0-11.598-9.402-21-21-21c-9.784,0-17.981,6.701-20.313,15.757C36.211,28.272,34.638,28,33,28 c-7.692,0-14.023,5.793-14.89,13.252C12.906,42.353,9,46.969,9,52.5C9,58.851,14.149,64,20.5,64c0.177,0,0.352-0.012,0.526-0.022 C21.022,64.153,21,64.324,21,64.5C21,75.822,30.178,85,41.5,85c6.437,0,12.175-2.972,15.934-7.614C59.612,79.611,62.64,81,66,81 c4.65,0,8.674-2.65,10.666-6.518C77.718,74.817,78.837,75,80,75c6.075,0,11-4.925,11-11C91,60.689,89.53,57.727,87.215,55.71z"/><path fill="#fdfcef" d="M76.5,31.5V32h-3v-0.5c0,0-4.242,0-5.5,0c-2.485,0-4.5-2.015-4.5-4.5 c0-2.333,1.782-4.229,4.055-4.455C67.533,22.364,67.5,22.187,67.5,22c0-2.485,2.015-4.5,4.5-4.5c1.438,0,2.703,0.686,3.527,1.736 C75.667,16.6,77.829,14.5,80.5,14.5c2.761,0,5,2.239,5,5c0,0.446-0.077,0.87-0.187,1.282c0.642-0.777,1.6-1.282,2.687-1.282 c1.781,0,3.234,1.335,3.455,3.055C91.636,22.533,91.813,22.5,92,22.5c2.485,0,4.5,2.015,4.5,4.5s-2.015,4.5-4.5,4.5s-9.5,0-9.5,0 H76.5z"/><path fill="#472b29" d="M80.5,14c3.033,0,5.5,2.467,5.5,5.5c0,0.016,0,0.031,0,0.047C86.602,19.192,87.29,19,88,19 c1.831,0,3.411,1.261,3.858,3.005C91.905,22.002,91.952,22,92,22c2.757,0,5,2.243,5,5s-2.243,5-5,5H76.5 c-0.276,0-0.5-0.224-0.5-0.5s0.224-0.5,0.5-0.5H92c2.206,0,4-1.794,4-4s-1.794-4-4-4c-0.117,0-0.23,0.017-0.343,0.032 l-0.141,0.019c-0.021,0.003-0.041,0.004-0.062,0.004c-0.246,0-0.462-0.185-0.495-0.437C90.768,21.125,89.496,20,88,20 c-0.885,0-1.723,0.401-2.301,1.1c-0.098,0.118-0.241,0.182-0.386,0.182c-0.078,0-0.156-0.018-0.228-0.056 c-0.209-0.107-0.314-0.346-0.254-0.573C84.946,20.218,85,19.852,85,19.5c0-2.481-2.019-4.5-4.5-4.5 c-2.381,0-4.347,1.872-4.474,4.263c-0.011,0.208-0.15,0.387-0.349,0.45c-0.05,0.016-0.101,0.024-0.152,0.024 c-0.15,0-0.296-0.069-0.392-0.192C74.362,18.563,73.221,18,72,18c-2.206,0-4,1.794-4,4c0,0.117,0.017,0.23,0.032,0.343 l0.019,0.141c0.016,0.134-0.022,0.268-0.106,0.373c-0.084,0.105-0.207,0.172-0.34,0.185C65.549,23.247,64,24.949,64,27 c0,2.206,1.794,4,4,4h5.5c0.276,0,0.5,0.224,0.5,0.5S73.776,32,73.5,32H68c-2.757,0-5-2.243-5-5c0-2.397,1.689-4.413,4.003-4.877 C67.001,22.082,67,22.041,67,22c0-2.757,2.243-5,5-5c1.176,0,2.293,0.416,3.183,1.164C75.781,15.76,77.945,14,80.5,14L80.5,14z"/><path fill="#472b29" d="M82,21c1.403,0,2.609,0.999,2.913,2.341C85.28,23.119,85.699,23,86.125,23 c1.202,0,2.198,0.897,2.353,2.068C88.681,25.022,88.874,25,89.063,25c1.529,0,2.811,1.2,2.918,2.732 C91.99,27.87,91.886,27.99,91.749,28c-0.006,0-0.012,0-0.018,0c-0.13,0-0.24-0.101-0.249-0.232 c-0.089-1.271-1.151-2.268-2.419-2.268c-0.229,0-0.47,0.042-0.738,0.127c-0.022,0.007-0.045,0.01-0.067,0.01 c-0.055,0-0.11-0.02-0.156-0.054C88.038,25.537,88,25.455,88,25.375c0-1.034-0.841-1.875-1.875-1.875 c-0.447,0-0.885,0.168-1.231,0.473c-0.047,0.041-0.106,0.063-0.165,0.063c-0.032,0-0.063-0.006-0.093-0.019 c-0.088-0.035-0.148-0.117-0.155-0.212C84.377,22.512,83.288,21.5,82,21.5c-0.208,0-0.425,0.034-0.682,0.107 c-0.023,0.007-0.047,0.01-0.07,0.01c-0.109,0-0.207-0.073-0.239-0.182c-0.038-0.133,0.039-0.271,0.172-0.309 C81.483,21.04,81.744,21,82,21L82,21z"/><path fill="#472b29" d="M68.117,22.5c1.326,0,2.508,0.897,2.874,2.182c0.038,0.133-0.039,0.271-0.172,0.309 C70.795,24.997,70.772,25,70.75,25c-0.109,0-0.209-0.072-0.24-0.182C70.205,23.748,69.221,23,68.117,23 c-0.117,0-0.23,0.014-0.342,0.029c-0.012,0.002-0.023,0.003-0.035,0.003c-0.121,0-0.229-0.092-0.246-0.217 c-0.019-0.137,0.077-0.263,0.214-0.281C67.842,22.516,67.978,22.5,68.117,22.5L68.117,22.5z"/><path fill="#fff" d="M44.5,20h-10c-0.276,0-0.5-0.224-0.5-0.5s0.224-0.5,0.5-0.5h10c0.276,0,0.5,0.224,0.5,0.5 S44.777,20,44.5,20z"/><path fill="#fff" d="M47.5,20h-1c-0.276,0-0.5-0.224-0.5-0.5s0.224-0.5,0.5-0.5h1c0.276,0,0.5,0.224,0.5,0.5 S47.777,20,47.5,20z"/><path fill="#fff" d="M52.491,22H43.5c-0.276,0-0.5-0.224-0.5-0.5s0.224-0.5,0.5-0.5h8.991c0.276,0,0.5,0.224,0.5,0.5 S52.767,22,52.491,22z"/><path fill="#fff" d="M41.5,22h-1c-0.276,0-0.5-0.224-0.5-0.5s0.224-0.5,0.5-0.5h1c0.276,0,0.5,0.224,0.5,0.5 S41.777,22,41.5,22z"/><path fill="#fff" d="M38.5,22h-2c-0.276,0-0.5-0.224-0.5-0.5s0.224-0.5,0.5-0.5h2c0.276,0,0.5,0.224,0.5,0.5 S38.777,22,38.5,22z"/><path fill="#fff" d="M44.5,24h-2c-0.276,0-0.5-0.224-0.5-0.5s0.224-0.5,0.5-0.5h2c0.276,0,0.5,0.224,0.5,0.5 S44.776,24,44.5,24z"/><path fill="#fff" d="M47.5,15c-0.177,0-0.823,0-1,0c-0.276,0-0.5,0.224-0.5,0.5c0,0.276,0.224,0.5,0.5,0.5 c0.177,0,0.823,0,1,0c0.276,0,0.5-0.224,0.5-0.5C48,15.224,47.776,15,47.5,15z"/><path fill="#fff" d="M47.5,17c-0.177,0-4.823,0-5,0c-0.276,0-0.5,0.224-0.5,0.5c0,0.276,0.224,0.5,0.5,0.5 c0.177,0,4.823,0,5,0c0.276,0,0.5-0.224,0.5-0.5C48,17.224,47.776,17,47.5,17z"/><path fill="#fff" d="M52.5,19c-0.177,0-2.823,0-3,0c-0.276,0-0.5,0.224-0.5,0.5c0,0.276,0.224,0.5,0.5,0.5 c0.177,0,2.823,0,3,0c0.276,0,0.5-0.224,0.5-0.5C53,19.224,52.776,19,52.5,19z"/><path fill="#fff" d="M87.5,67h-10c-0.276,0-0.5-0.224-0.5-0.5s0.224-0.5,0.5-0.5h10c0.276,0,0.5,0.224,0.5,0.5 S87.776,67,87.5,67z"/><path fill="#fff" d="M91.5,67h-2c-0.276,0-0.5-0.224-0.5-0.5s0.224-0.5,0.5-0.5h2c0.276,0,0.5,0.224,0.5,0.5 S91.776,67,91.5,67z"/><path fill="#fff" d="M96.5,69h-10c-0.276,0-0.5-0.224-0.5-0.5s0.224-0.5,0.5-0.5h10c0.276,0,0.5,0.224,0.5,0.5 S96.777,69,96.5,69z"/><path fill="#fff" d="M84.5,69h-1c-0.276,0-0.5-0.224-0.5-0.5s0.224-0.5,0.5-0.5h1c0.276,0,0.5,0.224,0.5,0.5 S84.776,69,84.5,69z"/><path fill="#fff" d="M81.47,69H79.5c-0.276,0-0.5-0.224-0.5-0.5s0.224-0.5,0.5-0.5h1.97c0.276,0,0.5,0.224,0.5,0.5 S81.746,69,81.47,69z"/><path fill="#fff" d="M90.5,65h-5c-0.276,0-0.5-0.224-0.5-0.5s0.224-0.5,0.5-0.5h5c0.276,0,0.5,0.224,0.5,0.5 S90.777,65,90.5,65z"/><path fill="#fff" d="M87.5,71h-2c-0.276,0-0.5-0.224-0.5-0.5s0.224-0.5,0.5-0.5h2c0.276,0,0.5,0.224,0.5,0.5 S87.776,71,87.5,71z"/><g><path fill="#fdfcef" d="M21.5,78.5c0,0-1.567,0-3.5,0s-3.5-1.567-3.5-3.5c0-1.781,1.335-3.234,3.055-3.455 C17.527,71.366,17.5,71.187,17.5,71c0-1.933,1.567-3.5,3.5-3.5c1.032,0,1.95,0.455,2.59,1.165 c0.384-1.808,1.987-3.165,3.91-3.165c2.209,0,4,1.791,4,4c0,0.191-0.03,0.374-0.056,0.558C31.872,69.714,32.408,69.5,33,69.5 c1.228,0,2.245,0.887,2.455,2.055C35.634,71.527,35.813,71.5,36,71.5c1.933,0,3.5,1.567,3.5,3.5s-1.567,3.5-3.5,3.5s-7.5,0-7.5,0 V79h-7V78.5z"/><path fill="#472b29" d="M19.75,74c0.138,0,0.25-0.112,0.25-0.25c0-1.223-0.995-2.218-2.218-2.218 c-0.034,0.009-0.737-0.001-1.244,0.136c-0.133,0.036-0.212,0.173-0.176,0.306c0.036,0.134,0.173,0.213,0.306,0.176 c0.444-0.12,1.1-0.12,1.113-0.118c0.948,0,1.719,0.771,1.719,1.718C19.5,73.888,19.612,74,19.75,74z"/><circle cx="26.5" cy="78.5" r=".5" fill="#472b29"/><path fill="#472b29" d="M18,79h3.5c0.276,0,0.5-0.224,0.5-0.5S21.776,78,21.5,78H18c-1.654,0-3-1.346-3-3 c0-1.496,1.125-2.768,2.618-2.959c0.134-0.018,0.255-0.088,0.336-0.196s0.115-0.244,0.094-0.377C18.025,71.314,18,71.16,18,71 c0-1.654,1.346-3,3-3c0.85,0,1.638,0.355,2.219,1c0.125,0.139,0.321,0.198,0.5,0.148c0.182-0.049,0.321-0.195,0.36-0.379 C24.42,67.165,25.859,66,27.5,66c1.93,0,3.5,1.57,3.5,3.5c0,0.143-0.021,0.28-0.041,0.418c-0.029,0.203,0.063,0.438,0.242,0.54 c0.179,0.102,0.396,0.118,0.556-0.01C32.122,70.155,32.551,70,33,70c0.966,0,1.792,0.691,1.963,1.644 c0.048,0.267,0.296,0.446,0.569,0.405C35.686,72.025,35.84,72,36,72c1.654,0,3,1.346,3,3s-1.346,3-3,3h-7.5 c-0.276,0-0.5,0.224-0.5,0.5s0.224,0.5,0.5,0.5H36c2.206,0,4-1.794,4-4s-1.794-4-4-4c-0.059,0-0.116,0.002-0.174,0.006 C35.412,69.82,34.289,69,33,69c-0.349,0-0.689,0.061-1.011,0.18C31.824,66.847,29.874,65,27.5,65 c-1.831,0-3.466,1.127-4.153,2.774C22.667,67.276,21.845,67,21,67c-2.206,0-4,1.794-4,4c0,0.048,0.001,0.095,0.004,0.142 C15.261,71.59,14,73.169,14,75C14,77.206,15.794,79,18,79z"/><path fill="#472b29" d="M23.5,78c0.159,0,0.841,0,1,0c0.276,0,0.5,0.224,0.5,0.5c0,0.276-0.224,0.5-0.5,0.5 c-0.159,0-0.841,0-1,0c-0.276,0-0.5-0.224-0.5-0.5C23,78.224,23.224,78,23.5,78z"/></g><g><path fill="#77cbd2" d="M28.727,62C23.907,62,20,57.852,20,52.735c0-4.744,3.39-8.353,7.721-8.89 c0.09-0.011,0.154-0.083,0.144-0.172c-0.045-0.375-0.084-0.898-0.107-1.233c-0.395-5.745,3.907-9.265,8.727-9.265 c2.7,0,5.087,1.326,6.686,3.373c0.055,0.071,0.162,0.039,0.169-0.05C43.726,31.191,47.87,27,52.97,27 c5.355,0,9.697,4.609,9.697,10.294c0,0.83-0.122,1.624-0.303,2.394c-0.017,0.074,0.07,0.119,0.126,0.066 c1.518-1.442,3.233-2.388,5.257-2.388c3.393,0,6.302,2.284,6.463,6.019c0.005,0.107,0.097,0.187,0.206,0.176 C79.271,43.07,84,47.688,84,52.735C84,57.852,80.093,62,75.273,62s-18.424,0-18.424,0S31.167,62,28.727,62z"/></g><g><path fill="#472b29" d="M52,57c-0.226,0-0.453-0.076-0.64-0.232L46,52.302l-5.36,4.467 c-0.425,0.353-1.056,0.296-1.408-0.128c-0.354-0.424-0.296-1.055,0.128-1.408l6-5c0.371-0.309,0.909-0.309,1.28,0l6,5 c0.424,0.354,0.481,0.984,0.128,1.408C52.57,56.877,52.286,57,52,57z"/></g><g><path fill="#472b29" d="M46,72c-0.552,0-1-0.448-1-1V51c0-0.552,0.448-1,1-1s1,0.448,1,1v20C47,71.552,46.552,72,46,72z"/></g><g><path fill="#472b29" d="M57,72c-0.228,0-0.455-0.077-0.64-0.232l-6-5c-0.424-0.354-0.481-0.984-0.128-1.408 c0.353-0.424,0.983-0.482,1.408-0.128L57,69.698l5.36-4.467c0.424-0.354,1.054-0.296,1.408,0.128 c0.354,0.424,0.296,1.055-0.128,1.408l-6,5C57.455,71.923,57.228,72,57,72z"/></g><g><path fill="#472b29" d="M57,72c-0.552,0-1-0.448-1-1V51c0-0.552,0.448-1,1-1s1,0.448,1,1v20C58,71.552,57.552,72,57,72z"/></g><g><path fill="#472b29" d="M75.13,43.524c-0.237,0-0.476,0.012-0.714,0.036c-0.007,0-0.014,0.001-0.021,0.001 c-0.1,0-0.181-0.076-0.186-0.176c-0.161-3.735-3.07-6.019-6.463-6.019c-2.024,0-3.739,0.946-5.257,2.388 c-0.017,0.016-0.036,0.023-0.055,0.023c-0.044,0-0.083-0.038-0.071-0.089c0.18-0.771,0.303-1.564,0.303-2.394 C62.667,31.609,58.325,27,52.97,27c-5.1,0-9.244,4.19-9.63,9.499c-0.004,0.055-0.047,0.088-0.092,0.088 c-0.027,0-0.055-0.012-0.076-0.039c-1.599-2.046-3.986-3.373-6.687-3.373c-4.82,0-9.122,3.52-8.727,9.265 c0.023,0.334,0.063,0.858,0.107,1.232c0.01,0.088-0.053,0.16-0.144,0.171C23.39,44.382,20,47.991,20,52.735 C20,57.852,23.907,62,28.727,62c1.117,0,7.107,0,13.273,0c1.035,0,1.059-1.4,0-1.4H28.727c-4.04,0-7.327-3.528-7.327-7.865 c0-3.88,2.731-7.034,6.494-7.501c0.852-0.105,1.462-0.88,1.361-1.727c-0.042-0.353-0.079-0.847-0.101-1.162 c-0.149-2.174,0.469-4.071,1.789-5.484c1.356-1.452,3.375-2.285,5.541-2.285c2.141,0,4.176,1.033,5.583,2.834 c0.286,0.367,0.716,0.577,1.18,0.577c0.778,0,1.432-0.609,1.489-1.387c0.334-4.599,3.951-8.201,8.234-8.201 c4.575,0,8.297,3.99,8.297,8.894c0,0.641-0.084,1.301-0.266,2.076c-0.103,0.441-0.001,0.896,0.279,1.25 c0.281,0.354,0.702,0.558,1.155,0.558c0.381,0,0.743-0.145,1.019-0.408c1.418-1.348,2.823-2.003,4.293-2.003 c2.342,0,4.926,1.464,5.064,4.68c0.037,0.85,0.733,1.516,1.584,1.516l0.091-0.001l0.07-0.007c0.189-0.019,0.382-0.029,0.574-0.029 c3.839,0,7.469,3.796,7.469,7.811c0,4.336-3.287,7.865-7.327,7.865H61c-1.071,0-1.078,1.4,0,1.4c4.41,0,11.165,0,14.273,0 C80.093,62,84,57.852,84,52.735C84,47.936,79.725,43.524,75.13,43.524z"/></g><g><path fill="#472b29" d="M46.938,38c-0.008,0-0.016,0-0.024-0.001c-0.138-0.013-0.238-0.135-0.226-0.272 c0.446-4.714,3.009-6.292,4.497-6.812c2.159-0.755,4.393-0.224,5.308,0.724c0.096,0.099,0.093,0.258-0.007,0.354 c-0.099,0.096-0.257,0.093-0.354-0.006c-0.789-0.817-2.841-1.279-4.782-0.6c-1.375,0.481-3.745,1.95-4.164,6.387 C47.174,37.903,47.065,38,46.938,38z"/></g><g><path fill="#472b29" d="M29.625,58.313c-0.001,0-0.003,0-0.004,0c-1.907-0.034-3.498-0.917-4.48-2.486 c-1.025-1.638-1.171-3.717-0.379-5.425c0.058-0.125,0.208-0.18,0.332-0.122c0.125,0.058,0.18,0.207,0.122,0.332 c-0.722,1.557-0.588,3.453,0.349,4.949c0.89,1.42,2.333,2.22,4.065,2.251c0.138,0.002,0.248,0.116,0.246,0.254 C29.873,58.204,29.761,58.313,29.625,58.313z"/></g><g><path fill="#472b29" d="M26.534,48.865c-0.076,0-0.152-0.035-0.201-0.101c-0.082-0.111-0.059-0.268,0.053-0.35 c1.395-1.031,3.352-1.434,5.674-1.175c-0.597-1.465-0.925-2.833-0.976-4.073c-0.005-0.138,0.102-0.254,0.24-0.26 c0.147-0.012,0.254,0.102,0.26,0.24c0.052,1.29,0.424,2.736,1.104,4.296c0.037,0.083,0.025,0.179-0.03,0.251 c-0.055,0.072-0.147,0.108-0.234,0.096c-2.382-0.344-4.367,0.012-5.74,1.027C26.638,48.849,26.586,48.865,26.534,48.865z"/></g><g><path fill="#472b29" d="M31.537,41.385c-0.021,0-0.043-0.003-0.064-0.008c-0.133-0.036-0.213-0.173-0.177-0.306 c0.357-1.341,1.145-2.406,2.278-3.078c0.119-0.07,0.272-0.031,0.342,0.088c0.071,0.119,0.031,0.272-0.087,0.343 c-1.018,0.604-1.727,1.564-2.049,2.776C31.749,41.311,31.648,41.385,31.537,41.385z"/></g><g><path fill="#472b29" d="M39.563,38.875c-0.055,0-0.11-0.018-0.156-0.055c-1.02-0.815-2.377-1.188-3.723-1.022 c-0.144,0.02-0.262-0.081-0.279-0.218c-0.017-0.137,0.081-0.262,0.217-0.279c1.477-0.182,2.973,0.229,4.097,1.127 c0.108,0.086,0.125,0.244,0.039,0.352C39.708,38.843,39.636,38.875,39.563,38.875z"/></g><g><path fill="#472b29" d="M74.5,57.75h-5c-0.138,0-0.25-0.112-0.25-0.25s0.112-0.25,0.25-0.25h5 c1.668,0,3.03-0.716,3.834-2.017c0.953-1.542,0.932-3.643-0.058-5.621c-0.062-0.124-0.012-0.274,0.112-0.335 c0.124-0.062,0.273-0.012,0.335,0.112c1.067,2.134,1.081,4.417,0.036,6.108C77.874,56.928,76.322,57.75,74.5,57.75z"/></g><g><path fill="#472b29" d="M67.5,57.75h-5c-0.138,0-0.25-0.112-0.25-0.25s0.112-0.25,0.25-0.25h5 c0.138,0,0.25,0.112,0.25,0.25S67.638,57.75,67.5,57.75z"/></g></svg>